<?xml version="1.0" standalone="no"?>
<!DOCTYPE svg PUBLIC "-//W3C//DTD SVG 1.1//EN" "http://www.w3.org/Graphics/SVG/1.1/DTD/svg11.dtd" >
<svg>
<metadata>
Created by FontForge 20090914 at Tue Sep 13 08:27:19 2016
 By www-data
</metadata>
<defs>
<font id="NumbersDelancey-Regular" horiz-adv-x="512" >
  <font-face 
    font-family="Numbers Delancey"
    font-weight="400"
    font-stretch="normal"
    units-per-em="1024"
    panose-1="2 11 6 0 5 3 2 2 2 4"
    ascent="819"
    descent="-205"
    x-height="1"
    cap-height="1"
    bbox="-33 -239 1429 856"
    underline-thickness="0"
    underline-position="-256"
    unicode-range="U+0001-U+00FF"
  />
<missing-glyph 
 />
    <glyph glyph-name=".notdef" 
 />
    <glyph glyph-name="uni0000" horiz-adv-x="0" 
d="M0 1v-1v1z" />
    <glyph glyph-name="uni0000" horiz-adv-x="0" 
d="M0 1v-1v1z" />
    <glyph glyph-name="uni0001" 
d="M0 1v-1v1z" />
    <glyph glyph-name="uni0002" 
d="M0 1v-1v1z" />
    <glyph glyph-name="uni0003" 
d="M0 1v-1v1z" />
    <glyph glyph-name="uni0004" 
d="M0 1v-1v1z" />
    <glyph glyph-name="uni0005" 
d="M0 1v-1v1z" />
    <glyph glyph-name="uni0006" 
d="M0 1v-1v1z" />
    <glyph glyph-name="uni0007" 
d="M0 1v-1v1z" />
    <glyph glyph-name="uni0008" 
d="M0 1v-1v1z" />
    <glyph glyph-name="uni0009" unicode="&#x9;" 
d="M0 1v-1v1z" />
    <glyph glyph-name="uni000A" unicode="&#xa;" 
d="M0 1v-1v1z" />
    <glyph glyph-name="uni000B" 
d="M0 1v-1v1z" />
    <glyph glyph-name="uni000C" 
d="M0 1v-1v1z" />
    <glyph glyph-name="uni000D" unicode="&#xd;" horiz-adv-x="0" 
d="M0 1v-1v1z" />
    <glyph glyph-name="uni000E" 
d="M0 1v-1v1z" />
    <glyph glyph-name="uni000F" 
d="M0 1v-1v1z" />
    <glyph glyph-name="uni0010" 
d="M0 1v-1v1z" />
    <glyph glyph-name="uni0011" 
d="M0 1v-1v1z" />
    <glyph glyph-name="uni0012" 
d="M0 1v-1v1z" />
    <glyph glyph-name="uni0013" 
d="M0 1v-1v1z" />
    <glyph glyph-name="uni0014" 
d="M0 1v-1v1z" />
    <glyph glyph-name="uni0015" 
d="M0 1v-1v1z" />
    <glyph glyph-name="uni0016" 
d="M0 1v-1v1z" />
    <glyph glyph-name="uni0017" 
d="M0 1v-1v1z" />
    <glyph glyph-name="uni0018" 
d="M0 1v-1v1z" />
    <glyph glyph-name="uni0019" 
d="M0 1v-1v1z" />
    <glyph glyph-name="uni001A" 
d="M0 1v-1v1z" />
    <glyph glyph-name="uni001B" 
d="M0 1v-1v1z" />
    <glyph glyph-name="uni001C" horiz-adv-x="655" 
d="M0 1v-1v1z" />
    <glyph glyph-name="uni001D" horiz-adv-x="655" 
d="M0 1v-1v1z" />
    <glyph glyph-name="uni001E" 
d="M0 1v-1v1z" />
    <glyph glyph-name="uni001F" 
d="M0 1v-1v1z" />
    <glyph glyph-name="space" unicode=" " horiz-adv-x="338" 
d="M0 1v-1v1z" />
    <glyph glyph-name="space" unicode="&#xa0;" horiz-adv-x="338" 
d="M0 1v-1v1z" />
    <glyph glyph-name="exclam" unicode="!" 
d="M0 1v-1v1z" />
    <glyph glyph-name="quotedbl" unicode="&#x22;" horiz-adv-x="473" 
d="M208 524l-61 -138l-55 -51l-64 12v355l57 51l141 -35l39 35l205 -51l-142 -316l-56 -51l-64 12v177v0zM107 723v-305l20 -5l121 274l-141 36v0zM287 723v-305l21 -5l123 274l-144 36v0v0v1v-1z" />
    <glyph glyph-name="numbersign" unicode="#" horiz-adv-x="833" 
d="M296 88l-30 -111l-57 -53h-123l49 183l-107 12v187l57 51l114 -13l16 57l-135 15v184l56 51l142 -16l15 56l52 49h128l-33 -123l110 -13l24 87l51 49h129l-42 -154l96 -10v-187l-54 -49l-106 12l-16 -57l124 -14v-187l-57 -51l-131 15l-22 -81l-56 -53h-124l41 152
l-111 12v0zM376 385l-16 -60l114 -12l16 59l-114 13v0zM323 307l42 154l202 -22l-42 -155l-202 23v0zM216 178l-48 -178h72l46 170l202 -23l-40 -147h73l37 139l166 -18v141l-129 14l42 155l139 -16v141l-102 12l41 148h-73l-37 -140l-202 22l32 118h-73l-30 -110l-174 20
v-141l137 -16l-43 -154l-145 16v-141l109 -12v0v0v1v-1z" />
    <glyph glyph-name="dollar" unicode="$" horiz-adv-x="616" 
d="M535 407c42.667 -26 64.333 -66.334 65 -121.001c-1.33301 -55.333 -19 -97.666 -53 -126.999s-76.333 -47 -127 -53v-128l-62 -58h-130v137l-131 35l-22 -3l-43 -18v230l31 29c-10 16 -15 40 -15 72c2 90 62 158.333 180 205v76l62 57h130v-121l55 -7l89 11v-190
l-29 -26v0zM387.999 598.999l0.00390625 116.998h-76v-114c-55.333 -5.33301 -99 -21.333 -131 -48s-48.333 -60 -49 -100c0.666992 -40.667 16 -72 46 -94c29.333 -22 70.666 -39.667 123.999 -53c48 -12 79.667 -22.333 95 -31s22.333 -19 21 -31
c-2 -25.333 -22.667 -38.666 -62 -39.999c-40 0.666992 -82.333 10.334 -127 29.001s-82.334 42 -113.001 70v-138l43 7l62 -15c26 -10 56.333 -18.667 91 -26v-131h76v126c50.667 2.66699 93 17 127 43c34 25.333 51.667 64 53 116c0 41.333 -14.333 73 -43 95
c-28 21.333 -69 39 -123 53c-46.667 12 -78 21.667 -94 29c-16.667 7.33301 -24.334 17 -23.001 29c-0.666992 22.667 17.666 33.667 54.999 33c59.333 0 123.333 -18.667 192 -56v125l-57 -6l-87 11v0v0v1v-1z" />
    <glyph glyph-name="uni0025" unicode="%" horiz-adv-x="967" 
d="M362 307c-35.333 -17.333 -71.999 -26.332 -109.999 -26.999c-72.667 1.33301 -129.334 22 -170.001 62c-40.667 39.333 -61.334 89 -62.001 149c2 66.667 28.333 126 79 178s115.334 79.667 194.001 83c68.667 -1.33301 123 -21 163 -59
c40 -38.667 61.333 -87.334 64 -146.001l71 112l96 80h145l-260 -399c44.667 29.333 97 45.333 157 48c70.667 -2 126 -22.667 166 -62c40 -40 60.333 -89.667 61 -149c-2 -67.333 -28.667 -127 -80 -179s-114.666 -79.333 -189.999 -82
c-72.667 2 -129.334 23.333 -170.001 64c-41.333 40.667 -62.333 91 -63 151l2 30l-119 -184l-50 -48h-165l241 378v0zM289.001 728.001c-62 -1.33301 -110 -19.666 -144 -54.999c-34.667 -35.333 -52.334 -80.333 -53.001 -135
c0.666992 -53.333 18.334 -97.333 53.001 -132c34 -35.333 82 -53.666 144 -54.999c62.667 1.33301 111.334 19.666 146.001 54.999c34.667 34.667 52.334 78.667 53.001 132c-0.666992 54.667 -18.334 99.667 -53.001 135s-83.334 53.666 -146.001 54.999v0z
M234.001 0.000976562h82l467 716h-85l-464 -716v0zM289.001 679.001c48.667 0 73.334 -47 74.001 -141c-0.666992 -92 -25.334 -138 -74.001 -138c-47.333 0 -71.666 46 -72.999 138c1.33301 94 25.666 141 72.999 141v0zM271.001 611.001
c-16.667 5.33301 -25.001 -26 -25.001 -94c2.66699 -64.667 13.334 -95.667 32.001 -93c15.333 -5.33301 23 25.667 23 93c-2 68 -12 99.333 -30 94v0zM725 364.001c-62.667 -1.33301 -111.334 -19.666 -146.001 -54.999s-52.334 -79.333 -53.001 -132
c0.666992 -52.667 18.334 -97 53.001 -133s83.334 -55 146.001 -57c63.333 2 112.333 21 147 57c34 36 51.333 80.333 52 133c-0.666992 52.667 -18 96.667 -52 132c-34.667 35.333 -83.667 53.666 -147 54.999v0zM725 315.001c49.333 -0.666992 74.333 -46.667 75 -138
c-0.666992 -90.667 -25.667 -136.334 -75 -137.001c-48.667 0.666992 -73.667 46.334 -75 137.001c1.33301 91.333 26.333 137.333 75 138v0zM706 249.001c-16.667 4.66699 -25.333 -26.333 -26 -93c2.66699 -63.333 13.667 -93.666 33 -90.999
c16.667 -4.66699 25 25.666 25 90.999c-2 66.667 -12.667 97.667 -32 93v0v0v1v-1z" />
    <glyph glyph-name="ampersand" unicode="&#x26;" 
d="M0 1v-1v1z" />
    <glyph glyph-name="quotesingle" unicode="'" horiz-adv-x="291" 
d="M28 347v355l57 51l205 -51l-142 -316l-56 -51l-64 12v0zM107 723v-305l21 -5l123 274l-144 36v0v0v1v-1z" />
    <glyph glyph-name="parenleft" unicode="(" horiz-adv-x="459" 
d="M411 -97l-55 -48.002c-112.667 58 -196.667 122.667 -252 194c-56 70.667 -83.667 156 -83 256c0.666992 112 35 210.667 103 296c67.333 86 160.333 157.667 279 215l61 -99l-52 -62c-61.333 -35.333 -108.666 -76.666 -141.999 -123.999
c-32.667 -47.333 -49.334 -110.666 -50.001 -189.999c0 -76 19.333 -141 58 -195c39.333 -53.333 101.333 -106.333 186 -159l-53 -84v0zM425 -24.002c-78.667 48.667 -137.667 102.335 -177 161.002c-40 58 -60 131 -60 219s20 161.333 60 220
c39.333 58 98.333 111.333 177 160l-31 50c-100.667 -48.667 -176.667 -107.334 -228 -176.001s-77 -153.334 -77 -254.001c0 -100 26 -184.333 78 -253c51.333 -68 127 -127 227 -177l31 50v0v0v1v-1z" />
    <glyph glyph-name="parenright" unicode=")" horiz-adv-x="469" 
d="M237 321c0.666992 75.333 -18.6641 140.667 -57.9971 196c-39.333 54.667 -101 108.334 -185 161.001l54 87l56 51c112.667 -57.333 198 -122 256 -194c58.667 -72 88 -160.333 88 -265c-0.666992 -118 -35.334 -216.333 -104.001 -295
c-68 -79.333 -164.333 -149.333 -289 -210l-51 81l42 58c65.333 37.333 113.666 79.666 144.999 126.999s46.666 115 45.999 203v0zM81.002 -23.999l30 -50c100.667 48.667 176.667 107.667 228 177c51.333 68.667 77 153.334 77 254.001c0 100 -26 184 -78 252
c-51.333 68 -127 127 -227 177l-30 -50c78.667 -48.667 137.667 -102 177 -160c38.667 -58 58 -131 58 -219s-19.333 -161.333 -58 -220c-39.333 -58.667 -98.333 -112.334 -177 -161.001v0v0v1v-1z" />
    <glyph glyph-name="asterisk" unicode="*" horiz-adv-x="574" 
d="M436 438c17.333 -12 30.668 -24.0039 40.001 -36.0039c29.333 -42.667 20 -84 -28 -124c-60 -48 -108 -48.333 -144 -1c-9.33301 14.667 -16.666 32.667 -21.999 54l-10 -18c-18 -27.333 -40.667 -48.666 -68 -63.999c-28 -15.333 -57.667 -12.666 -89 8.00098
c-20 14.667 -31.667 33 -35 55c-2.66699 21.333 2.33301 41.333 15 60c11.333 14.667 26.333 28.334 45 41.001l43 28l-49 -3l-60 5c-47.333 16.667 -65 49 -53 97c12 36.667 31.667 62 59 76s54.666 16.333 81.999 7l32 -16l-5 31c1.33301 27.333 13.666 53.333 36.999 78
s49.333 38 78 40c26.667 -0.666992 47.334 -9 62.001 -25s22 -35.333 22 -58c-0.666992 -17.333 -5.33398 -37 -14.001 -59l-22 -56l43 33c17.333 14.667 35 25.334 53 32.001c22 7.33301 43.333 7.33301 64 0c21.333 -7.33301 36 -23 44 -47
c8.66699 -30.667 2.66699 -58 -18 -82s-46 -41 -76 -51l-26 -5v0zM169.002 310.996c30 -18 55.667 -12.999 77 15.001c8 13.333 14.667 29.666 20 48.999l21 83l-16 12l-71 -46l-40 -35c-20.667 -28.667 -17.667 -54.667 9 -78v0zM441.002 310.997
c26 23.333 29 49.332 9 77.999l-40 35l-73 46l-16 -13l21 -82c5.33301 -19.333 12.333 -35.666 21 -48.999c21.333 -28 47.333 -33 78 -15v0zM83.002 568.996c-8 -34 5 -57 39 -69l52 -4l86 5l6 20l-66 53c-16 12.667 -31 22 -45 28c-34 10.667 -58 -0.333008 -72 -33v0z
M526.002 568.996c-14 32.667 -37.667 43.667 -71 33c-15.333 -6 -30.333 -15.333 -45 -28l-68 -53l6 -20l87 -5l53 4c33.333 12 46 35 38 69v0zM304.002 731.996c-34.667 -4 -52 -23.667 -52 -59c0.666992 -15.333 4.66699 -32.333 12 -51l30 -80h20l30 80
c7.33301 18.667 11.333 35.667 12 51c0 35.333 -17.333 55 -52 59v0v0v1v-1z" />
    <glyph glyph-name="plus" unicode="+" horiz-adv-x="655" 
d="M436 256v-151l-54 -49h-162v200h-196v152l53 48h143v151l53 49h163v-200h196v-151l-53 -49h-143v0zM404 328h196v104h-196v200h-109v-200h-196v-104h196v-200h109v200v0v0v1v-1z" />
    <glyph glyph-name="comma" unicode="," horiz-adv-x="322" 
d="M12 22c-2.66699 39.333 17.999 81.3301 61.999 125.997c36.667 38.667 73.667 57.334 111 56.001c32 -0.666992 60.667 -12.667 86 -36c26 -23.333 39.667 -56.666 41 -99.999c0 -61.333 -21.333 -115.666 -64 -162.999c-42 -47.333 -102 -95.333 -180 -144l-49 42
c38.667 48.667 60.334 88 65.001 118c-48.667 23.333 -72.667 57 -72 101v0zM122.999 -156.003c42 26 78.334 57.6689 109.001 95.002c30.667 38 46.667 81 48 129c-0.666992 35.333 -10.334 62.666 -29.001 81.999c-18 19.333 -40 29.333 -66 30
c-59.333 -4.66699 -91.333 -37.334 -96 -98.001c0 -44 24.667 -74.333 74 -91c-4.66699 -38.667 -24.667 -82 -60 -130l20 -17v0v0v1v-1z" />
    <glyph glyph-name="hyphen" unicode="-" horiz-adv-x="461" 
d="M440 488v-215l-57 -53h-359v215l57 53h359v0zM103 464v-168h305v168h-305v0v0v1v-1z" />
    <glyph glyph-name="period" unicode="." horiz-adv-x="322" 
d="M130 -92c-33.333 0.666992 -61.001 11.668 -83.001 33.001s-33.667 48.333 -35 81c0 45.333 21 88 63 128c34.667 36 71.334 54 110.001 54c35.333 -0.666992 65 -12 89 -34c24.667 -22.667 37.334 -51.334 38.001 -86.001c4.66699 -32 -12.333 -67 -51 -105
c-40.667 -47.333 -84.334 -71 -131.001 -71v0zM184.999 180.001c-59.333 -4.66699 -91.333 -36.667 -96 -96c4.66699 -59.333 36.667 -91.333 96 -96c58.667 4.66699 90.334 36.667 95.001 96c-4.66699 59.333 -36.334 91.333 -95.001 96v0v0v1v-1z" />
    <glyph glyph-name="slash" unicode="/" horiz-adv-x="532" 
d="M189 -22l-61 -58h-161l367 735l87 85h149l-381 -762v0zM77 1h89l359 715h-90l-358 -715v0v0v1v-1z" />
    <glyph glyph-name="zero" unicode="0" horiz-adv-x="954" 
d="M505 751c121.333 -1.33301 220.998 -37.334 298.998 -108.001c78.667 -70 119.334 -165.333 122.001 -286c-2 -129.333 -45.667 -236.333 -131 -321c-85.333 -85.333 -198.333 -129.666 -339 -132.999c-123.333 2 -224.666 38 -303.999 108s-120.333 164 -123 282
c2.66699 130 48 238 136 324s201.333 130.667 340 134v0zM501.998 728.999c-114.667 -2 -206.667 -36.668 -276 -104.001s-105 -157.333 -107 -270c2 -110 38 -198.333 108 -265s163.333 -101 280 -103c117.333 2.66699 211 38.334 281 107.001s105.667 156.667 107 264
c-1.33301 108 -37.333 196.333 -108 265c-70.667 68 -165.667 103.333 -285 106v0zM506.998 669.998c122 -4.66699 183.333 -108.667 184 -312c-0.666992 -203.333 -62 -307.333 -184 -312c-119.333 4.66699 -177.333 108.667 -174 312
c-2.66699 203.333 55.333 307.333 174 312v0zM472.998 593.998c-74.667 -3.33301 -111.001 -84.998 -109.001 -244.998c1.33301 -174.667 44.333 -264 129 -268c42 0.666992 71 23 87 67c16.667 44 24.334 104 23.001 180c-0.666992 95.333 -13.667 163.666 -39 204.999
c-24.667 41.333 -55 61.666 -91 60.999v0v0v1v-1z" />
    <glyph glyph-name="one" unicode="1" horiz-adv-x="400" 
d="M352 69c-0.666992 -28 10.333 -51.3311 33 -69.998l-76 -79h-295c26 37.333 38.667 83.666 38 138.999v499c2 43.333 -8.66699 78.666 -32 105.999l52 49l280 26v-670v0zM320 712.002l-206.999 -18c14 -18.667 21.333 -49.667 22 -93v-527
c0 -36 -5.33301 -60.333 -16 -73h218c-10.667 14 -16.334 36.667 -17.001 68v643v0v0v1v-1z" />
    <glyph glyph-name="two" unicode="2" horiz-adv-x="874" 
d="M861 543c-2 -117.333 -104.336 -195.998 -307.003 -235.998c-91.333 -20 -153 -39.667 -185 -59c-32.667 -19.333 -52.667 -40 -60 -62h393c28.667 -0.666992 52.334 3.66602 71.001 12.999c18 9.33301 37.333 27 58 53l51 -27l-96 -248l-70 -56h-687
c0 146 31.667 256.667 95 332c62.667 76 156 134 280 174c52.667 18 88.334 34 107.001 48c18.667 13.333 27.334 28.666 26.001 45.999c3.33301 40.667 -31 61 -103 61c-67.333 -0.666992 -130.666 -16 -189.999 -46s-117 -67.333 -173 -112v259l60 61l69 -18l47 -5l103 12
l172 12c97.333 0 177.666 -17.333 240.999 -52s96 -84.667 98 -150v0zM521.997 723.002l-172 -13.001l-103 -12c-30.667 0 -61.667 5 -93 15v-166c36.667 28.667 80.667 53 132 73c50.667 20 110.667 30.333 180 31c57.333 -0.666992 99.333 -10.667 126 -30
c26 -19.333 39 -42.666 39 -69.999c2 -30.667 -11.667 -56 -41 -76c-29.333 -20.667 -88.333 -44.667 -177 -72c-87.333 -26.667 -156.333 -72.334 -207 -137.001c-50.667 -65.333 -76.667 -154 -78 -266h633l87 215l-14 7c-18 -22 -36 -37.333 -54 -46
c-18.667 -8.66699 -44.667 -12.667 -78 -12h-459c9.33301 43.333 38.333 82.333 87 117c48 34.667 124.333 60.334 229 77.001c183.333 24 274 85.667 272 185c-2 60.667 -31.667 105.667 -89 135c-56.667 30 -130 45 -220 45v0v0v1v-1z" />
    <glyph glyph-name="three" unicode="3" horiz-adv-x="858" 
d="M824 540c-2 -47.333 -16.334 -82.666 -43.001 -105.999c-26 -24 -54.333 -41 -85 -51c38 -14.667 70.667 -36 98 -64c26.667 -28 40.667 -66 42 -114c-2 -58.667 -24.333 -110 -67 -154c-43.333 -44 -97.666 -78.333 -162.999 -103c-65.333 -25.333 -132 -38 -200 -38
l-124 11l-108 11c-31.333 1.33301 -75.666 -6 -132.999 -22v231l61 52c106.667 -67.333 204.667 -102.333 294 -105c78.667 0 118.667 30 120 90c-3.33301 60.667 -45.666 91 -126.999 91c-46.667 -0.666992 -97.667 -9.66699 -153 -27v184l60 52
c43.333 -19.333 86.333 -29.333 129 -30c52 1.33301 78.333 21.666 79 60.999c-0.666992 49.333 -43 73.333 -127 72c-58.667 -0.666992 -115 -13 -169 -37s-108.667 -55.667 -164 -95v246l61 52c41.333 -14.667 79.333 -22 114 -22l108 10l141 10
c99.333 0 182.666 -17.667 249.999 -53s102.666 -86 105.999 -152v0zM467.999 723l-140.001 -11.0039l-109 -10c-38 0.666992 -68.667 6.33398 -92 17.001v-155c80.667 56 173.667 85 279 87c56 0 100.333 -10 133 -30s49.334 -49.667 50.001 -89
c-0.666992 -38 -14.667 -66 -42 -84c-26.667 -18.667 -61.667 -27.667 -105 -27c-46.667 0.666992 -87.667 8.33398 -123 23.001v-115c33.333 10.667 72.666 16.334 117.999 17.001c47.333 0 86.333 -11 117 -33s46.334 -54 47.001 -96
c-1.33301 -54 -21.666 -93 -60.999 -117c-40 -23.333 -88 -35 -144 -35c-50 0.666992 -97.667 10 -143 28c-44.667 17.333 -87.667 38.333 -129 63v-155c32.667 10 67 15 103 15l95 -11l136 -11c87.333 -1.33301 166 14.334 236 47.001s107 88.667 111 168
c-0.666992 43.333 -16.667 80.333 -48 111c-31.333 30 -73.666 51.333 -126.999 64c47.333 11.333 86 29.333 116 54c30 24 45.667 58 47 102c-2.66699 61.333 -34.334 107 -95.001 137c-60.667 30.667 -137.334 46 -230.001 46v0v0v1v-1z" />
    <glyph glyph-name="four" unicode="4" horiz-adv-x="892" 
d="M771 114v-46.999c0 -12 2 -24.333 6 -37c4.66699 -12.667 14.667 -30.334 30 -53.001l-69 -56h-307l30 50c4.66699 11.333 6.66699 23 6 35v96h-364l-108 136l448 471l82 30h282l-30 -53c-4 -12 -6 -24.333 -6 -37v-374h16c11.333 -0.666992 23 3 35 11l55 52v-200
l-60 -41c-16.667 9.33301 -32 15 -46 17v0zM741 181.001h37c31.333 -0.666992 54 -4 68 -10v109c-14 -18 -36.667 -27 -68 -27h-37v396c0 31.333 5.33301 54 16 68h-217l-448 -471l52 -65h406v-114c0 -31.333 -5.33301 -53.666 -16 -66.999h223
c-10.667 13.333 -16 35.666 -16 66.999v114v0zM550 253.001h-357l357 366v-366v0zM467 492.001l-212 -217h212v217v0v0v1v-1z" />
    <glyph glyph-name="five" unicode="5" horiz-adv-x="862" 
d="M232 491l0.000976562 -94.998c60 31.333 153 49.333 279 54c87.333 1.33301 164.333 -16.334 231 -53.001c66.667 -36 101.667 -96.667 105 -182c-4 -90.667 -49 -164 -135 -220c-85.333 -56 -185.666 -84.667 -300.999 -86l-113 12l-108 12l-66 -5l-75 -14v225l61 61
c50.667 -36.667 99.667 -65.667 147 -87c47.333 -20.667 97.666 -31 150.999 -31c82 2 122.333 35.667 121 101c-4.66699 69.333 -45.334 104.666 -122.001 105.999c-71.333 -1.33301 -151.666 -29.333 -240.999 -84l-120 79v394l61 61h711v-245l-66 -43
c-30.667 16.667 -55.334 27.667 -74.001 33l-67 7h-379v0zM788.001 717.002h-659.002v-398l56 -37c82.667 48.667 166.667 75.334 252 80.001c54.667 0 98 -12.667 130 -38c32 -24.667 48.667 -59.334 50 -104.001c-1.33301 -52.667 -21.666 -92.667 -60.999 -120
c-38.667 -27.333 -88 -41 -148 -41c-55.333 1.33301 -106.333 11.333 -153 30c-46 18.667 -87 41 -123 67v-153l114 14l104 -12l123 -12c84.667 -1.33301 162 15 232 49s107 91.667 111 173c-2.66699 79.333 -34 135 -94 167c-60.667 32 -131.667 47.333 -213 46
c-68 -0.666992 -126.667 -8 -176 -22c-48.667 -14 -92 -30.667 -130 -50v201h466l69 -6c16.667 -4 33.334 -10.333 50.001 -19v185v0v0v1v-1z" />
    <glyph glyph-name="six" unicode="6" horiz-adv-x="891" 
d="M349 450c56 22.667 116.332 34.001 180.999 34.001c83.333 0 159 -20.333 227 -61c67.333 -40.667 103 -103.334 107 -188.001c-3.33301 -104 -46 -185 -128 -243c-81.333 -58 -180.333 -87.333 -297 -88c-116.667 0.666992 -213.667 36.667 -291 108
c-76.667 71.333 -116.667 171.333 -120 300c4 125.333 49 228.333 135 309c86.667 80 190.667 121.333 312 124l102 -9l92 -8l64 2l83 8v-227l-54 -49c-60 43.333 -110.333 73.333 -151 90c-41.333 16.667 -83.666 24.667 -126.999 24
c-82.667 -4.66699 -127.667 -46.667 -135 -126v0zM311.999 412.001c4 167.333 73.666 249.998 208.999 247.998c88 -2.66699 175.667 -37.667 263 -105v156l-57 -5l-58 -2l-92 9l-102 9c-111.333 -1.33301 -198.666 -33.666 -261.999 -96.999
c-62.667 -63.333 -94.667 -148.333 -96 -255c2 -118.667 37 -211.667 105 -279c68.667 -67.333 158 -101.666 268 -102.999c89.333 0 168 21.667 236 65c67.333 42.667 102.666 105.667 105.999 189c-3.33301 74.667 -35.666 129.667 -96.999 165
c-60.667 35.333 -129 53 -205 53c-82 -1.33301 -154.667 -17.333 -218 -48v0zM309.998 338.999c59.333 35.333 118.67 52.666 178.003 51.999c45.333 0 81.666 -14 108.999 -42c28 -28.667 42.333 -70.667 43 -126c-0.666992 -54.667 -15.334 -96 -44.001 -124
c-28.667 -28.667 -64.334 -43 -107.001 -43c-57.333 1.33301 -101 28 -131 80c-30 52.667 -46 120.334 -48 203.001v0zM344.002 280.999c6.66699 -58 21 -105.332 43 -141.999s52.667 -55.667 92 -57c48 0 72.667 37 74 111c-1.33301 75.333 -37 113.666 -107 114.999
c-37.333 -2.66699 -71.333 -11.667 -102 -27v0v0v1v-1z" />
    <glyph glyph-name="seven" unicode="7" horiz-adv-x="825" 
d="M759 739l66.999 -108l-94 -80c-89.333 -78 -148.666 -145.667 -177.999 -203c-30 -57.333 -44 -108.333 -42 -153c0 -42.667 5.66699 -80 17 -112s29.333 -67.333 54 -106l-56 -56h-350c-0.666992 84 23.333 170.333 72 259c49.333 88 123.333 183.667 222 287h-318
c-49.333 0 -94 -10.333 -134 -31v243l60 60h680v0zM101.999 717l-0.00195312 -189.999c26.667 11.333 61.667 17.333 105 18h383c-93.333 -94.667 -168.333 -186.334 -225 -275.001c-57.333 -89.333 -86.666 -179.333 -87.999 -270h257c-15.333 25.333 -28 53.333 -38 84
c-9.33301 30 -14 67 -14 111c-2 50 13.667 105 47 165c32.667 60 94.334 129.667 185.001 209l77 67l-49 81h-640v0v0v1v-1z" />
    <glyph glyph-name="eight" unicode="8" horiz-adv-x="897" 
d="M850 531c-0.666992 -38 -10.333 -68.999 -29 -92.999c-19.333 -24 -43.333 -44 -72 -60c84 -34.667 128 -92 132 -172c-2.66699 -85.333 -46 -156.666 -130 -213.999c-84 -56.667 -194 -86.334 -330 -89.001c-118 0.666992 -214.333 22 -289 64
c-74.667 41.333 -113 101.333 -115 180c0 74 45.667 138.667 137 194c-70 34 -105.667 82.333 -107 145c2 63.333 41.667 122.666 119 177.999c78 54.667 181.667 83.667 311 87c122 -2 214.667 -25 278 -69s95 -94.333 95 -151v0zM477.001 729.001
c-112.667 -2 -197.668 -22.9971 -255.001 -62.9971c-57.333 -39.333 -86.333 -86 -87 -140c0.666992 -67.333 46.334 -117 137.001 -149c-110 -42.667 -165.667 -103.334 -167 -182.001c2 -68.667 37 -120.334 105 -155.001s157 -52.334 267 -53.001
c120 1.33301 212 22.333 276 63s96.333 92.667 97 156c-2 82 -56.667 139 -164 171c87.333 34 131.666 85.333 132.999 154c0 52 -28.667 97.667 -86 137c-57.333 38.667 -142.666 59 -255.999 61v0zM475 674.004c47.333 -1.33301 84.999 -14.667 112.999 -40
c27.333 -24.667 41.333 -57.334 42 -98.001c-4 -83.333 -55 -127.666 -153 -132.999c-48 0.666992 -85.333 13.334 -112 38.001c-26.667 24 -40 55.667 -40 95c0.666992 39.333 14 72 40 98c26.667 25.333 63.334 38.666 110.001 39.999v0zM476.999 345.003
c56 -1.33301 98.999 -16.666 128.999 -45.999c29.333 -28.667 44 -64 44 -106s-14.333 -77.333 -43 -106c-29.333 -28.667 -72.666 -43.334 -129.999 -44.001c-57.333 0.666992 -100.333 15.334 -129 44.001c-29.333 28 -44 63.333 -44 106
c0.666992 42 15.667 77.333 45 106c29.333 29.333 72 44.666 128 45.999v0zM547.998 513.003c-2.66699 55.333 -34.667 85.335 -96 90.002c-57.333 -3.33301 -87.333 -32 -90 -86c4 -54.667 36 -84.334 96 -89.001c57.333 3.33301 87.333 31.666 90 84.999v0z
M568.998 166.005c-4.66699 66 -42.668 101.333 -114.001 106c-36 -0.666992 -63.667 -10.667 -83 -30c-19.333 -18.667 -29.333 -42.667 -30 -72c0.666992 -31.333 12 -56.333 34 -75c22.667 -18 51.334 -27.333 86.001 -28c68 3.33301 103.667 36.333 107 99v0v0v1v-1z" />
    <glyph glyph-name="nine" unicode="9" horiz-adv-x="891" 
d="M536 168l-109.001 -14.999c-101.333 0.666992 -191.666 24 -270.999 70s-121.333 114.333 -126 205c4.66699 99.333 49.334 177.666 134.001 234.999c84.667 58 182.667 87.333 294 88c117.333 -1.33301 213.666 -37.333 288.999 -108
c75.333 -71.333 114 -169.666 116 -294.999c-2.66699 -125.333 -44 -229.333 -124 -312c-80 -82 -180.667 -124.333 -302 -127l-106 8l-98 9l-177 -10v224l65 61c54.667 -36 106 -65.333 154 -88s92 -34.334 132 -35.001c73.333 -2 116.333 28 129 90v0zM632.999 279.001
c-10.667 -152 -85.999 -226.663 -225.999 -223.996c-42.667 1.33301 -87.334 12.666 -134.001 33.999c-46.667 20.667 -89.667 44.667 -129 72v-158l60 5l59 2l99 -9l106 -8c112.667 1.33301 201.334 33.666 266.001 96.999s97.667 149.333 99 258
c-2 118 -37.333 210.667 -106 278s-158.334 101.666 -269.001 102.999c-95.333 -0.666992 -175.666 -23 -240.999 -67c-64.667 -44.667 -98.334 -109.334 -101.001 -194.001c2.66699 -78 33.667 -137.667 93 -179c58.667 -41.333 131 -62.333 217 -63
c75.333 2 144.333 19.667 207 53v0zM637 354.005c-58.667 -38.667 -117.332 -57.667 -175.999 -57c-102.667 3.33301 -154.334 64.666 -155.001 183.999c3.33301 114.667 52.333 174.334 147 179.001c62 -2 108.333 -30.667 139 -86c30 -55.333 45 -125.333 45 -210v-10v0z
M552.002 337.005v27.999c0 66 -10.667 118.333 -32 157c-22 38.667 -55.667 58.334 -101 59.001c-58 -2.66699 -85.667 -42.667 -83 -120c0 -37.333 9.66699 -70 29 -98c20 -28 52 -42.667 96 -44c28.667 0 59 6 91 18v0v0v1v-1z" />
    <glyph glyph-name="colon" unicode=":" horiz-adv-x="322" 
d="M130 227c-33.333 0.666992 -61.001 11.668 -83.001 33.001s-33.667 48.333 -35 81c0 46 21 88.667 63 128c34.667 36.667 71.334 55 110.001 55c35.333 -0.666992 65 -12.334 89 -35.001c24.667 -22 37.334 -50.333 38.001 -85c4.66699 -32 -12.333 -67.333 -51 -106
c-40.667 -47.333 -84.334 -71 -131.001 -71v0zM129.999 -91.999c-33.333 0.666992 -61.001 11.668 -83.001 33.001s-33.667 48.333 -35 81c0 45.333 21 88 63 128c34.667 36 71.334 54 110.001 54c35.333 -0.666992 65 -12 89 -34
c24.667 -22.667 37.334 -51.334 38.001 -86.001c4.66699 -32 -12.333 -67 -51 -105c-40.667 -47.333 -84.334 -71 -131.001 -71v0zM184.998 500.002c-59.333 -4.66699 -91.333 -36.667 -96 -96c4.66699 -60 36.667 -92.333 96 -97c58.667 4.66699 90.334 37 95.001 97
c-4.66699 59.333 -36.334 91.333 -95.001 96v0zM184.998 180.002c-59.333 -4.66699 -91.333 -36.667 -96 -96c4.66699 -59.333 36.667 -91.333 96 -96c58.667 4.66699 90.334 36.667 95.001 96c-4.66699 59.333 -36.334 91.333 -95.001 96v0v0v1v-1z" />
    <glyph glyph-name="semicolon" unicode=";" horiz-adv-x="322" 
d="M130 227c-33.333 0.666992 -61.001 11.668 -83.001 33.001s-33.667 48.333 -35 81c0 46 21 88.667 63 128c34.667 36.667 71.334 55 110.001 55c35.333 -0.666992 65 -12.334 89 -35.001c24.667 -22 37.334 -50.333 38.001 -85c4.66699 -32 -12.333 -67.333 -51 -106
c-40.667 -47.333 -84.334 -71 -131.001 -71v0zM184.999 500.001c-59.333 -4.66699 -91.333 -36.667 -96 -96c4.66699 -60 36.667 -92.333 96 -97c58.667 4.66699 90.334 37 95.001 97c-4.66699 59.333 -36.334 91.333 -95.001 96v0zM11.999 22.001
c-2.66699 39.333 17.999 81.3301 61.999 125.997c36.667 38.667 73.667 57.334 111 56.001c32 -0.666992 60.667 -12.667 86 -36c26 -23.333 39.667 -56.666 41 -99.999c0 -61.333 -21.333 -115.666 -64 -162.999c-42 -47.333 -102 -95.333 -180 -144l-49 42
c38.667 48.667 60.334 88 65.001 118c-48.667 23.333 -72.667 57 -72 101v0zM122.998 -156.002c42 26 78.334 57.6689 109.001 95.002c30.667 38 46.667 81 48 129c-0.666992 35.333 -10.334 62.666 -29.001 81.999c-18 19.333 -40 29.333 -66 30
c-59.333 -4.66699 -91.333 -37.334 -96 -98.001c0 -44 24.667 -74.333 74 -91c-4.66699 -38.667 -24.667 -82 -60 -130l20 -17v0v0v1v-1z" />
    <glyph glyph-name="less" unicode="&#x3c;" horiz-adv-x="655" 
d="M344 363l268 -108v-169l-52 -46l-532 228v124l52 46l532 240v-168l-66 -61l-202 -86v0zM240 379l340 145v115l-478 -215v-96l478 -204v116l-340 139v0v0v1v-1z" />
    <glyph glyph-name="equal" unicode="=" horiz-adv-x="655" 
d="M44 379v152l53 49h515v-152l-53 -49h-515v0zM580 451v105h-461v-105h461v0zM44 136v152l53 48h515v-151l-53 -49h-515v0zM580 208v104h-461v-104h461v0v0v1v-1z" />
    <glyph glyph-name="greater" unicode="&#x3e;" horiz-adv-x="655" 
d="M326 350l-282 114v160l57 52l531 -228v-124l-67 -61l-521 -235v173l57 52l225 97v0zM463 384l-340 -146v-114l477 215v95l-477 205v-117l340 -138v0v0v1v-1z" />
    <glyph glyph-name="question" unicode="?" 
d="M0 1v-1v1z" />
    <glyph glyph-name="at" unicode="@" 
d="M0 1v-1v1z" />
    <glyph glyph-name="A" unicode="A" 
d="M0 1v-1v1z" />
    <glyph glyph-name="B" unicode="B" 
d="M0 1v-1v1z" />
    <glyph glyph-name="C" unicode="C" 
d="M0 1v-1v1z" />
    <glyph glyph-name="D" unicode="D" 
d="M0 1v-1v1z" />
    <glyph glyph-name="E" unicode="E" 
d="M0 1v-1v1z" />
    <glyph glyph-name="F" unicode="F" 
d="M0 1v-1v1z" />
    <glyph glyph-name="G" unicode="G" 
d="M0 1v-1v1z" />
    <glyph glyph-name="H" unicode="H" 
d="M0 1v-1v1z" />
    <glyph glyph-name="I" unicode="I" 
d="M0 1v-1v1z" />
    <glyph glyph-name="J" unicode="J" 
d="M0 1v-1v1z" />
    <glyph glyph-name="K" unicode="K" 
d="M0 1v-1v1z" />
    <glyph glyph-name="L" unicode="L" 
d="M0 1v-1v1z" />
    <glyph glyph-name="M" unicode="M" 
d="M0 1v-1v1z" />
    <glyph glyph-name="N" unicode="N" 
d="M0 1v-1v1z" />
    <glyph glyph-name="O" unicode="O" 
d="M0 1v-1v1z" />
    <glyph glyph-name="P" unicode="P" 
d="M0 1v-1v1z" />
    <glyph glyph-name="Q" unicode="Q" 
d="M0 1v-1v1z" />
    <glyph glyph-name="R" unicode="R" 
d="M0 1v-1v1z" />
    <glyph glyph-name="S" unicode="S" 
d="M0 1v-1v1z" />
    <glyph glyph-name="T" unicode="T" 
d="M0 1v-1v1z" />
    <glyph glyph-name="U" unicode="U" 
d="M0 1v-1v1z" />
    <glyph glyph-name="V" unicode="V" 
d="M0 1v-1v1z" />
    <glyph glyph-name="W" unicode="W" 
d="M0 1v-1v1z" />
    <glyph glyph-name="X" unicode="X" 
d="M0 1v-1v1z" />
    <glyph glyph-name="Y" unicode="Y" 
d="M0 1v-1v1z" />
    <glyph glyph-name="Z" unicode="Z" 
d="M0 1v-1v1z" />
    <glyph glyph-name="bracketleft" unicode="[" horiz-adv-x="438" 
d="M252 643v-619h168v-115l-57 -53h-307v901l57 51h307v-112l-57 -53h-111v0zM388 0h-168v719h168v65h-253v-852h253v68v0v0v1v-1z" />
    <glyph glyph-name="backslash" unicode="\" horiz-adv-x="1449" 
d="M1130 322c15.333 -0.666992 26.999 10 34.999 32c7.33301 22.667 11 61 11 115c0.666992 89.333 -16.666 133 -51.999 131c-34 4 -51.333 -34.667 -52 -116c2 -111.333 21.333 -165.333 58 -162v0zM1146 238c72.667 1.33301 133 23.6699 181 67.0029
c47.333 43.333 72 102.666 74 177.999c-2 76 -27 135.667 -75 179c-48.667 43.333 -110 65.666 -184 66.999c-70.667 -0.666992 -129.667 -22.334 -177 -65.001c-47.333 -43.333 -72 -104.333 -74 -183c2 -77.333 26.667 -137 74 -179c48 -42 108.333 -63.333 181 -64v0z
M1146 294.004c-67.333 2.66699 -99.667 65.667 -97 189c-2 124.667 30.333 188.334 97 191.001c69.333 -2.66699 104.333 -66.334 105 -191.001c-0.666992 -123.333 -35.667 -186.333 -105 -189v0zM933.998 75.0039v-75h424v75h-424v0zM1269 209.004h119.998v-232l-62 -56
h-477v231l62 57h29c-76 44.667 -116.333 116.667 -121 216c2.66699 90 34.667 166.333 96 229c61.333 62 137.333 94.333 228 97c78 -0.666992 144.333 -24 199 -70c54.667 -46.667 83.334 -112.667 86.001 -198c-1.33301 -62 -16.666 -116.333 -45.999 -163
c-29.333 -47.333 -67.333 -84.333 -114 -111v0zM217.996 551.004l334.001 -553h201v651c0 31.333 5.33301 54 16 68h-116c10 -14 15.333 -36.667 16 -68v-444l-309 512h-242c10.667 -14 16 -36.667 16 -68v-582c0 -31.333 -5.33301 -53.666 -16 -66.999h117
c-10.667 13.333 -16.334 35.666 -17.001 66.999v484v0zM584.997 400.004l0.000976562 193.003c0.666992 12 -1.33301 24.333 -6 37l-30 53l62 56h208c-15.333 -22.667 -25 -40.334 -29 -53.001c-4.66699 -12 -6.66699 -24.333 -6 -37v-674l-62 -56h-244l-229 380v-232
c-0.666992 -12 1.33301 -24.333 6 -37s14.667 -30.334 30 -53.001l-62 -56h-209c25.333 35.333 37.666 80.666 36.999 135.999v536c0.666992 12 -1.33301 24.333 -6 37l-29 53l60 56h304l205 -339v0zM933.998 186.007v-75h424v75h-424v0v0v1v-1z" />
    <glyph glyph-name="bracketright" unicode="]" horiz-adv-x="453" 
d="M201 24v619h-169v114l57 51h307v-899l-57 -53h-307v116l57 52h112v0zM111 0v-68h253v852h-253v-65h169v-719h-169v0v0v1v-1z" />
    <glyph glyph-name="asciicircum" unicode="^" horiz-adv-x="322" 
d="M130 339c-33.333 0.666992 -61.001 11.668 -83.001 33.001s-33.667 48.333 -35 81c0 46 21 88.667 63 128c34.667 36.667 71.334 55 110.001 55c35.333 -0.666992 65 -12.334 89 -35.001c24.667 -22 37.334 -50.333 38.001 -85c4.66699 -32 -12.333 -67.333 -51 -106
c-40.667 -47.333 -84.334 -71 -131.001 -71v0zM129.999 20.001c-33.333 0.666992 -61.001 11.668 -83.001 33.001s-33.667 48.333 -35 81c0 45.333 21 88 63 128c34.667 36 71.334 54 110.001 54c35.333 -0.666992 65 -12 89 -34
c24.667 -22.667 37.334 -51.334 38.001 -86.001c4.66699 -32 -12.333 -67 -51 -105c-40.667 -47.333 -84.334 -71 -131.001 -71v0zM184.998 612.002c-59.333 -4.66699 -91.333 -36.667 -96 -96c4.66699 -60 36.667 -92.333 96 -97c58.667 4.66699 90.334 37 95.001 97
c-4.66699 59.333 -36.334 91.333 -95.001 96v0zM184.998 292.002c-59.333 -4.66699 -91.333 -36.667 -96 -96c4.66699 -59.333 36.667 -91.333 96 -96c58.667 4.66699 90.334 36.667 95.001 96c-4.66699 59.333 -36.334 91.333 -95.001 96v0v0v1v-1z" />
    <glyph glyph-name="underscore" unicode="_" 
d="M0 1v-1v1z" />
    <glyph glyph-name="grave" unicode="`" 
d="M0 1v-1v1z" />
    <glyph glyph-name="a" unicode="a" horiz-adv-x="402" 
d="M351 67c-0.666992 -28 10.334 -50.999 33.001 -68.999l-75 -77h-295c25.333 35.333 37.666 80.666 36.999 135.999v498c2 43.333 -8.66699 78.333 -32 105l83 79h282c-23.333 -32.667 -34.333 -62.667 -33 -90v-582v0zM321.001 649.001c0 31.333 5.33301 54 16 68h-219
c10.667 -14 16 -36.667 16 -68v-582c0 -31.333 -5.33301 -53.666 -16 -66.999h219c-10.667 13.333 -16 35.666 -16 66.999v582v0v0v1v-1z" />
    <glyph glyph-name="b" unicode="b" 
d="M0 1v-1v1z" />
    <glyph glyph-name="c" unicode="c" 
d="M0 1v-1v1z" />
    <glyph glyph-name="d" unicode="d" 
d="M0 1v-1v1z" />
    <glyph glyph-name="e" unicode="e" 
d="M0 1v-1v1z" />
    <glyph glyph-name="f" unicode="f" 
d="M0 1v-1v1z" />
    <glyph glyph-name="g" unicode="g" 
d="M0 1v-1v1z" />
    <glyph glyph-name="h" unicode="h" 
d="M0 1v-1v1z" />
    <glyph glyph-name="i" unicode="i" 
d="M0 1v-1v1z" />
    <glyph glyph-name="j" unicode="j" 
d="M0 1v-1v1z" />
    <glyph glyph-name="k" unicode="k" 
d="M0 1v-1v1z" />
    <glyph glyph-name="l" unicode="l" 
d="M0 1v-1v1z" />
    <glyph glyph-name="m" unicode="m" 
d="M0 1v-1v1z" />
    <glyph glyph-name="n" unicode="n" 
d="M0 1v-1v1z" />
    <glyph glyph-name="o" unicode="o" 
d="M0 1v-1v1z" />
    <glyph glyph-name="p" unicode="p" 
d="M0 1v-1v1z" />
    <glyph glyph-name="q" unicode="q" 
d="M0 1v-1v1z" />
    <glyph glyph-name="r" unicode="r" 
d="M0 1v-1v1z" />
    <glyph glyph-name="s" unicode="s" 
d="M0 1v-1v1z" />
    <glyph glyph-name="t" unicode="t" 
d="M0 1v-1v1z" />
    <glyph glyph-name="u" unicode="u" 
d="M0 1v-1v1z" />
    <glyph glyph-name="v" unicode="v" 
d="M0 1v-1v1z" />
    <glyph glyph-name="w" unicode="w" 
d="M0 1v-1v1z" />
    <glyph glyph-name="x" unicode="x" 
d="M0 1v-1v1z" />
    <glyph glyph-name="y" unicode="y" 
d="M0 1v-1v1z" />
    <glyph glyph-name="z" unicode="z" 
d="M0 1v-1v1z" />
    <glyph glyph-name="braceleft" unicode="{" horiz-adv-x="494" 
d="M145 416c0 21.333 -5.66797 48.0068 -17.001 80.0068l-18 56c-4 15.333 -6 31.666 -6 48.999c2 53.333 25.667 100.333 71 141c44.667 41.333 98.667 63.333 162 66h139v-112l-57 -53h-96c-11.333 1.33301 -17.666 -1.66699 -18.999 -9
c-1.33301 -6.66699 2.66699 -23.667 12 -51c16 -42 24 -77.333 24 -106c-3.33301 -54.667 -28.333 -95 -75 -121c46.667 -24.667 71.667 -64 75 -118c0 -28 -8 -62.667 -24 -104c-10 -26.667 -15.333 -51.334 -16 -74.001c0 -22 14 -34 42 -36h134v-115l-57 -53h-138
c-58 1.33301 -102 16.666 -132 45.999s-45 66.666 -45 111.999c0 17.333 2 33.666 6 48.999l18 56c11.333 31.333 17 57.666 17 78.999c-3.33301 37.333 -44.333 56.666 -123 57.999v99l57 53l66 8v0zM100.999 385.007v-56.9971c34.667 -1.33301 63.667 -8.66602 87 -21.999
c22.667 -14 34.667 -33.333 36 -58c0 -22.667 -6.33301 -51.334 -19 -86.001l-16 -52c-4 -14 -6 -29 -6 -45c0 -39.333 13 -71 39 -95c26 -24.667 64.333 -37.334 115 -38.001h107v68h-110c-43.333 4 -65.333 24 -66 60c0.666992 24.667 7 51.667 19 81
c14.667 38.667 21.667 71 21 97c-0.666992 30 -10.667 54.667 -30 74c-18.667 18.667 -42.334 33.334 -71.001 44.001c28.667 11.333 52.334 26.666 71.001 45.999c19.333 20 29.333 45 30 75c0.666992 26.667 -6.33301 59.667 -21 99c-12 29.333 -18.333 56.666 -19 81.999
c0.666992 36.667 22.667 57 66 61h110v65h-107c-102 -4.66699 -153.333 -48.334 -154 -131.001c0 -16.667 2 -32 6 -46l16 -53c12.667 -34.667 19 -63.667 19 -87c-1.33301 -25.333 -13.333 -45 -36 -59c-23.333 -14 -52.333 -21.667 -87 -23v0v0v1v-1z" />
    <glyph glyph-name="bar" unicode="|" horiz-adv-x="351" 
d="M80 807l53 49h135v-996l-56 -52h-132v999v0zM155 -117h81v949h-81v-949v0v0v1v-1z" />
    <glyph glyph-name="braceright" unicode="}" horiz-adv-x="494" 
d="M472 309l-56.001 -53.0029l-64 -8c0 -21.333 5.33301 -47.666 16 -78.999l18 -56l6 -48c-1.33301 -54.667 -24 -102.667 -68 -144s-99 -63 -165 -65h-139v116l57 52h85c17.333 -1.33301 27 1.33398 29 8.00098c2.66699 7.33301 -1 24.333 -11 51
c-15.333 40.667 -23.333 75.334 -24 104.001c2.66699 54 26.334 94.333 71.001 121c-44.667 25.333 -68.334 64.666 -71.001 117.999c0.666992 28.667 8.66699 64 24 106c10.667 26.667 16.334 51.334 17.001 74.001c0 22.667 -14.333 35 -43 37h-134v114l57 51h139
c58 -1.33301 102 -16 132 -44c29.333 -28.667 44 -65.667 44 -111l-6 -49l-18 -57c-10.667 -32 -16 -58.667 -16 -80c3.33301 -38 43.333 -57.667 120 -59v-99v0zM439.999 384.997c-33.333 1.33301 -61.332 8.99609 -83.999 22.9961s-34.667 33.667 -36 59
c0 23.333 6.33301 52.333 19 87l16 53l5 46c-0.666992 82.667 -51.334 126.334 -152.001 131.001h-109v-65h112c42.667 -4 64.334 -24.333 65.001 -61c-0.666992 -25.333 -7 -52.666 -19 -81.999c-14 -39.333 -21.333 -72.333 -22 -99c0.666992 -30 10.667 -54.667 30 -74
s43.333 -34.333 72 -45c-28.667 -10 -52.667 -24.667 -72 -44s-29.333 -44.666 -30 -75.999c0.666992 -26 8 -58.333 22 -97c12 -29.333 18.333 -56.333 19 -81c-0.666992 -36 -22.334 -56 -65.001 -60h-112v-68h109c50 0.666992 88 13.334 114 38.001
c25.333 24 38 55.667 38 95l-5 45l-16 52c-12.667 34 -19 62.667 -19 86c1.33301 26 13.333 46 36 60s50.667 21.667 84 23v54v0v0v1v-1z" />
    <glyph glyph-name="asciitilde" unicode="~" 
d="M0 1v-1v1z" />
    <glyph glyph-name="uni007F" 
d="M0 1v-1v1z" />
    <glyph glyph-name="uni0085" unicode="&#x85;" 
d="M0 1v-1v1z" />
    <glyph glyph-name="exclamdown" unicode="&#xa1;" 
d="M0 1v-1v1z" />
    <glyph glyph-name="cent" unicode="&#xa2;" horiz-adv-x="604" 
d="M428 620h6.99902c20 -1.33301 53.333 6 100 22l27 -223l-57 -51l-77 52v-178c32.667 10.667 74 33 124 67v-159l-57 -51l-67 -23v-99l-57 -53h-131v134c-65.333 9.33301 -118.666 35.666 -159.999 78.999s-62.666 100.333 -63.999 171
c1.33301 64.667 22.666 124.334 63.999 179.001c42 54.667 95.333 94.667 160 120v81l57 52h131v-120v0zM318.999 601c-64 -6.66699 -117 -31.668 -159 -75.001c-42 -44 -63.667 -99.667 -65 -167c1.33301 -67.333 22.666 -121 63.999 -161c42 -40 95.333 -63.333 160 -70
v-128h77v130c44 6.66699 85.333 17.667 124 33v99c-35.333 -27.333 -76.666 -43.666 -123.999 -48.999v313c48.667 -6 91 -24 127 -54l-16 139c-25.333 -10 -51 -15 -77 -15l-34 3v117h-77v-115v0zM318.999 224.999c-52 24.667 -76.668 72.667 -74.001 144
c0.666992 74 25.334 123.333 74.001 148v-292v0v0v1v-1z" />
    <glyph glyph-name="sterling" unicode="&#xa3;" horiz-adv-x="902" 
d="M95 420c-22.667 17.333 -35.001 47.002 -37.001 89.002c2.66699 60.667 40 115 112 163c72.667 48 166.667 73.333 282 76l169 -14l107 -14l57 6l71 21v-253l-62 -54c-121.333 86.667 -237.333 130 -348 130c-22.667 -0.666992 -34 -6.66699 -34 -18
c-1.33301 -6.66699 11 -22.667 37 -48c32 -31.333 53.333 -59.333 64 -84h251v-130l-62 -58h-239l-72 -48h328c29.333 -0.666992 53.333 3.66602 72 12.999s38.334 26.666 59.001 51.999l51 -27l-97 -244l-71 -58h-652l-75 126l149 126c26.667 24.667 41.667 44.667 45 60
h-184v131l62 57h17v0zM482.999 313.002l249.002 -0.000976562v83h-243c-7.33301 28 -29 59 -65 93l-46 52c-9.33301 12.667 -14 26.334 -14 41.001c0 18 10.333 34 31 48c21.333 13.333 56 20.333 104 21c118.667 -3.33301 227 -40 325 -110v171
c-30.667 -10.667 -65.334 -16 -104.001 -16l-103 14l-165 14c-86.667 -0.666992 -159.334 -15.334 -218.001 -44.001s-89 -69.667 -91 -123c0 -26 6.66699 -49 20 -69c13.333 -20.667 33.333 -42.667 60 -66l25 -26h-148v-83h198v-11c0.666992 -28.667 -14.333 -59 -45 -91
c-30 -31.333 -79.333 -74.666 -148 -129.999l50 -80h625l88 211l-15 7c-18 -22 -36.333 -37.667 -55 -47c-18.667 -8.66699 -45 -12.667 -79 -12h-421c42.667 23.333 80.667 48 114 74c33.333 26.667 57 53 71 79v0v0v1v-1z" />
    <glyph glyph-name="currency" unicode="&#xa4;" 
d="M390 269l245 -0.00195312l67 -6v89h-320v36h320v86l-67 -6h-241c14.667 50.667 40.667 92.334 78 125.001c36.667 32.667 83.667 49.334 141 50.001c48 -0.666992 93.333 -11.334 136 -32.001c42 -21.333 81.667 -47.666 119 -78.999v188
c-33.333 -15.333 -69 -22 -107 -20l-81 12l-116 12c-84.667 -2 -160.334 -26.333 -227.001 -73c-66.667 -47.333 -113 -108.333 -139 -183h-37l-68 8v-88h88v-36h-88v-91l68 8h28c20.667 -88 65.334 -156.333 134.001 -205c68.667 -49.333 150 -74.333 244 -75
c70 0 131 12.667 183 38c51.333 24.667 99.333 64.334 144 119.001l-47 73c-68 -90 -143 -133.667 -225 -131c-132.667 -0.666992 -210 59.666 -232 180.999v0zM635 491.998l97 12v-270l-60 -55l-52 11l-40 3h-132c15.333 -26.667 36.333 -46.667 63 -60
c26.667 -14 63.667 -21 111 -21c37.333 -1.33301 74.666 9 111.999 31c36.667 22 76 63 118 123l77 -118c-125.333 -158 -266.666 -238 -423.999 -240c-96.667 1.33301 -181 27 -253 77c-71.333 50.667 -118.333 118.334 -141 203.001h-9l-39 -3l-51 -10v277l61 55l71 -14
c42 73.333 100 133.666 174 180.999c73.333 47.333 155.333 72 246 74l116 -12l81 -12l62 7c21.333 4.66699 47 14 77 28v-279l-54 -46c-104.667 89.333 -196.667 133 -276 131c-32 -0.666992 -58.667 -8 -80 -22c-20.667 -14.667 -36.667 -31.667 -48 -51h193v0v0v1v-1z
" />
    <glyph glyph-name="yen" unicode="&#xa5;" horiz-adv-x="853" 
d="M572 92v-25.001c0 -12 2 -24 6 -36l30 -53l-63 -58h-303c26 37.333 38.667 83 38 137v35h-118l-39 -3l-51 -13v279l61 57c21.333 -6.66699 38.333 -11 51 -13l39 -3h6l-132 195c-24.667 38 -61 73 -109 105l46 44h337c0 -18 2.33301 -32.333 7 -43l20 -36l81 -134l46 74
c18 24.667 27 50.334 27 77.001l75 62h243l-64 -53l-43 -50l-164 -241h96c24 -1.33301 56.333 4 97 16v-280l-63 -56l-51 13l-39 3h-67v0zM353 371.999l-132 0.000976562l-68 8v-92h210v-36h-210v-87l68 8h142v-106c0 -30 -5.33301 -52 -16 -66h219
c-11.333 14 -17.333 36 -18 66v106h144l68 -8v87h-212v36h212v92l-68 -8h-136l189 277c22 31.333 43.333 53.666 64 66.999h-160c0.666992 -14 -9 -36.333 -29 -67l-123 -195l-119 195c-20 32 -29.667 54.333 -29 67h-245c20 -14 41 -36.333 63 -67l186 -277v0v0v1v-1z" />
    <glyph glyph-name="brokenbar" unicode="&#xa6;" horiz-adv-x="351" 
d="M0 1v-1v1z" />
    <glyph glyph-name="section" unicode="&#xa7;" 
d="M0 1v-1v1z" />
    <glyph glyph-name="dieresis" unicode="&#xa8;" 
d="M0 1v-1v1z" />
    <glyph glyph-name="copyright" unicode="&#xa9;" 
d="M0 1v-1v1z" />
    <glyph glyph-name="ordfeminine" unicode="&#xaa;" 
d="M0 1v-1v1z" />
    <glyph glyph-name="guillemotleft" unicode="&#xab;" 
d="M0 1v-1v1z" />
    <glyph glyph-name="logicalnot" unicode="&#xac;" horiz-adv-x="655" 
d="M23 257v154l52 47h558v-154l-52 -47h-558v0zM602 326v110h-504v-110h504v0v0v1v-1z" />
    <glyph glyph-name="uni00AD" unicode="&#xad;" horiz-adv-x="461" 
d="M0 1v-1v1z" />
    <glyph glyph-name="registered" unicode="&#xae;" 
d="M0 1v-1v1z" />
    <glyph glyph-name="macron" unicode="&#xaf;" 
d="M0 1v-1v1z" />
    <glyph glyph-name="degree" unicode="&#xb0;" horiz-adv-x="589" 
d="M270 232c-80 2 -141.666 24.999 -184.999 68.999c-42.667 43.333 -64.334 95.666 -65.001 156.999c2 76 31 143.333 87 202c56.667 58 127.667 88.667 213 92c76.667 -2 137 -24.667 181 -68c44 -44 66.333 -99 67 -165c-2.66699 -73.333 -32.667 -138.666 -90 -195.999
c-58 -57.333 -127.333 -87.666 -208 -90.999v0zM95.001 518.999c0.666992 -58.667 20.334 -108 59.001 -148c38 -40 92 -61 162 -63c69.333 2 123.333 23 162 63c38 40 57.333 89.333 58 148c-0.666992 60 -20 109.333 -58 148c-38.667 39.333 -92.667 59.666 -162 60.999
c-70 -1.33301 -124 -21.666 -162 -60.999c-38.667 -38.667 -58.334 -88 -59.001 -148v0zM316.001 371.999c-37.333 0.666992 -66.333 14.334 -87 41.001c-21.333 27.333 -32.333 62.333 -33 105c0.666992 43.333 11.667 78.666 33 105.999c20.667 28 49.667 42.333 87 43
c37.333 -0.666992 67.333 -15 90 -43c22 -27.333 33.333 -62.666 34 -105.999c-0.666992 -42.667 -12 -77.667 -34 -105c-22.667 -26.667 -52.667 -40.334 -90 -41.001v0zM228.001 504.999c1.33301 -35.333 9.66992 -62.332 25.0029 -80.999
c15.333 -18 32.666 -27 51.999 -27c37.333 1.33301 57 32 59 92c-0.666992 36 -8.33398 62.667 -23.001 80c-14.667 16.667 -31.334 25 -50.001 25c-40 -0.666992 -61 -30.334 -63 -89.001v0v0v1v-1z" />
    <glyph glyph-name="plusminus" unicode="&#xb1;" horiz-adv-x="655" 
d="M220 132v171h-196v152l53 49h143v148l53 48h163v-196h196v-152l-53 -49h-143v-153l-21 -18h217v-155l-53 -49h-555v156l53 48h143v0zM404 375h196v105h-196v196h-109v-196h-196v-105h196v-202h109v202v0zM600 0v108h-501v-108h501v0v0v1v-1z" />
    <glyph glyph-name="twosuperior" unicode="&#xb2;" horiz-adv-x="874" 
d="M0 1v-1v1z" />
    <glyph glyph-name="threesuperior" unicode="&#xb3;" horiz-adv-x="858" 
d="M0 1v-1v1z" />
    <glyph glyph-name="acute" unicode="&#xb4;" 
d="M0 1v-1v1z" />
    <glyph glyph-name="mu" unicode="&#xb5;" horiz-adv-x="655" 
d="M474 375l149 -149l-36 -51l-116 -116l-155 156l-151 -151l-113 113l34 49l110 109l-149 148l39 54l113 113l156 -156l155 156l113 -113l-36 -51l-113 -111v0zM425 382l156 155l-75 75l-156 -156l-155 156l-75 -75l156 -155l-156 -156l75 -75l155 156l156 -156l75 75
l-156 156v0v0v1v-1z" />
    <glyph glyph-name="paragraph" unicode="&#xb6;" 
d="M0 1v-1v1z" />
    <glyph glyph-name="periodcentered" unicode="&#xb7;" horiz-adv-x="322" 
d="M130 204c-33.333 0.666992 -61.001 11.668 -83.001 33.001s-33.667 48.333 -35 81c0 45.333 21 88 63 128c34.667 36 71.334 54 110.001 54c35.333 -0.666992 65 -12 89 -34c24.667 -22.667 37.334 -51.334 38.001 -86.001c4.66699 -32 -12.333 -67 -51 -105
c-40.667 -47.333 -84.334 -71 -131.001 -71v0zM184.999 476.001c-59.333 -4.66699 -91.333 -36.667 -96 -96c4.66699 -59.333 36.667 -91.333 96 -96c58.667 4.66699 90.334 36.667 95.001 96c-4.66699 59.333 -36.334 91.333 -95.001 96v0v0v1v-1z" />
    <glyph glyph-name="cedilla" unicode="&#xb8;" 
d="M0 1v-1v1z" />
    <glyph glyph-name="onesuperior" unicode="&#xb9;" horiz-adv-x="400" 
d="M0 1v-1v1z" />
    <glyph glyph-name="ordmasculine" unicode="&#xba;" 
d="M0 1v-1v1z" />
    <glyph glyph-name="guillemotright" unicode="&#xbb;" 
d="M0 1v-1v1z" />
    <glyph glyph-name="onequarter" unicode="&#xbc;" horiz-adv-x="400" 
d="M0 1v-1v1z" />
    <glyph glyph-name="onehalf" unicode="&#xbd;" horiz-adv-x="400" 
d="M0 1v-1v1z" />
    <glyph glyph-name="threequarters" unicode="&#xbe;" horiz-adv-x="858" 
d="M0 1v-1v1z" />
    <glyph glyph-name="questiondown" unicode="&#xbf;" 
d="M0 1v-1v1z" />
    <glyph glyph-name="Agrave" unicode="&#xc0;" 
d="M0 1v-1v1z" />
    <glyph glyph-name="Aacute" unicode="&#xc1;" 
d="M0 1v-1v1z" />
    <glyph glyph-name="Acircumflex" unicode="&#xc2;" 
d="M0 1v-1v1z" />
    <glyph glyph-name="Atilde" unicode="&#xc3;" 
d="M0 1v-1v1z" />
    <glyph glyph-name="Adieresis" unicode="&#xc4;" 
d="M0 1v-1v1z" />
    <glyph glyph-name="Aring" unicode="&#xc5;" 
d="M0 1v-1v1z" />
    <glyph glyph-name="AE" unicode="&#xc6;" 
d="M0 1v-1v1z" />
    <glyph glyph-name="Ccedilla" unicode="&#xc7;" 
d="M0 1v-1v1z" />
    <glyph glyph-name="Egrave" unicode="&#xc8;" 
d="M0 1v-1v1z" />
    <glyph glyph-name="Eacute" unicode="&#xc9;" 
d="M0 1v-1v1z" />
    <glyph glyph-name="Ecircumflex" unicode="&#xca;" 
d="M0 1v-1v1z" />
    <glyph glyph-name="Edieresis" unicode="&#xcb;" 
d="M0 1v-1v1z" />
    <glyph glyph-name="Igrave" unicode="&#xcc;" 
d="M0 1v-1v1z" />
    <glyph glyph-name="Iacute" unicode="&#xcd;" 
d="M0 1v-1v1z" />
    <glyph glyph-name="Icircumflex" unicode="&#xce;" 
d="M0 1v-1v1z" />
    <glyph glyph-name="Idieresis" unicode="&#xcf;" 
d="M0 1v-1v1z" />
    <glyph glyph-name="Eth" unicode="&#xd0;" horiz-adv-x="655" 
d="M0 1v-1v1z" />
    <glyph glyph-name="Ntilde" unicode="&#xd1;" 
d="M0 1v-1v1z" />
    <glyph glyph-name="Ograve" unicode="&#xd2;" 
d="M0 1v-1v1z" />
    <glyph glyph-name="Oacute" unicode="&#xd3;" 
d="M0 1v-1v1z" />
    <glyph glyph-name="Ocircumflex" unicode="&#xd4;" 
d="M0 1v-1v1z" />
    <glyph glyph-name="Otilde" unicode="&#xd5;" 
d="M0 1v-1v1z" />
    <glyph glyph-name="Odieresis" unicode="&#xd6;" 
d="M0 1v-1v1z" />
    <glyph glyph-name="multiply" unicode="&#xd7;" horiz-adv-x="574" 
d="M474 375l149 -149l-36 -51l-116 -116l-155 156l-151 -151l-113 113l34 49l110 109l-149 148l39 54l113 113l156 -156l155 156l113 -113l-36 -51l-113 -111v0zM425 382l156 155l-75 75l-156 -156l-155 156l-75 -75l156 -155l-156 -156l75 -75l155 156l156 -156l75 75
l-156 156v0v0v1v-1z" />
    <glyph glyph-name="Oslash" unicode="&#xd8;" 
d="M0 1v-1v1z" />
    <glyph glyph-name="Ugrave" unicode="&#xd9;" 
d="M0 1v-1v1z" />
    <glyph glyph-name="Uacute" unicode="&#xda;" 
d="M0 1v-1v1z" />
    <glyph glyph-name="Ucircumflex" unicode="&#xdb;" horiz-adv-x="936" 
d="M391 269h246.001l68 -6v88h-322v36h322v88l-68 -6h-241c14 51.333 39.667 93 77 125s84.666 48.667 141.999 50c48 -0.666992 93.333 -11.334 136 -32.001c42 -20.667 82 -47 120 -79v188c-34.667 -14.667 -71 -21.334 -109 -20.001l-81 11l-116 12
c-84 -1.33301 -159.667 -25.666 -227 -72.999c-66.667 -46.667 -113 -107.334 -139 -182.001h-38l-68 8v-90h88v-36h-88v-90l68 8h29c20 -87.333 64.667 -156 134 -206c68.667 -49.333 150.334 -74.666 245.001 -75.999c70 0 130.667 13 182 39c52 26 100 66.333 144 121
l-46 73c-68 -89.333 -143 -132.666 -225 -129.999c-132.667 -0.666992 -210.334 59 -233.001 179v0zM637.001 491c24.667 -1.33301 56.6689 3.33398 96.002 14.001v-271l-59 -53l-52 11l-40 3h-132c14.667 -26.667 35.667 -47 63 -61c26.667 -14.667 63.667 -22 111 -22
c37.333 -0.666992 74.666 10 111.999 32c36.667 22 76 62.667 118 122l76 -117c-64 -80 -130.333 -140 -199 -180s-143.334 -60 -224.001 -60c-97.333 0.666992 -182 26.334 -254 77.001c-71.333 50 -118.666 118 -141.999 204h-8l-40 -3l-50 -10v275l60 56
c20.667 -8 44.667 -13.333 72 -16c42 74 100 134.333 174 181c74 47.333 156 71.666 246 72.999l116 -11l81 -11c38 -2.66699 84.333 8.66602 139 33.999v-278l-53 -46c-104.667 90.667 -196.667 135.334 -276 134.001c-32.667 -0.666992 -59.334 -8.33398 -80.001 -23.001
c-21.333 -15.333 -37.333 -33.333 -48 -54h193v0v0v1v-1z" />
    <glyph glyph-name="Udieresis" unicode="&#xdc;" 
d="M0 1v-1v1z" />
    <glyph glyph-name="Yacute" unicode="&#xdd;" 
d="M0 1v-1v1z" />
    <glyph glyph-name="Thorn" unicode="&#xde;" horiz-adv-x="655" 
d="M0 1v-1v1z" />
    <glyph glyph-name="germandbls" unicode="&#xdf;" 
d="M0 1v-1v1z" />
    <glyph glyph-name="agrave" unicode="&#xe0;" 
d="M0 1v-1v1z" />
    <glyph glyph-name="aacute" unicode="&#xe1;" 
d="M0 1v-1v1z" />
    <glyph glyph-name="acircumflex" unicode="&#xe2;" 
d="M0 1v-1v1z" />
    <glyph glyph-name="atilde" unicode="&#xe3;" 
d="M0 1v-1v1z" />
    <glyph glyph-name="adieresis" unicode="&#xe4;" 
d="M0 1v-1v1z" />
    <glyph glyph-name="aring" unicode="&#xe5;" 
d="M0 1v-1v1z" />
    <glyph glyph-name="ae" unicode="&#xe6;" 
d="M0 1v-1v1z" />
    <glyph glyph-name="ccedilla" unicode="&#xe7;" 
d="M0 1v-1v1z" />
    <glyph glyph-name="egrave" unicode="&#xe8;" 
d="M0 1v-1v1z" />
    <glyph glyph-name="eacute" unicode="&#xe9;" 
d="M0 1v-1v1z" />
    <glyph glyph-name="ecircumflex" unicode="&#xea;" 
d="M0 1v-1v1z" />
    <glyph glyph-name="edieresis" unicode="&#xeb;" 
d="M0 1v-1v1z" />
    <glyph glyph-name="igrave" unicode="&#xec;" 
d="M0 1v-1v1z" />
    <glyph glyph-name="iacute" unicode="&#xed;" 
d="M0 1v-1v1z" />
    <glyph glyph-name="icircumflex" unicode="&#xee;" 
d="M0 1v-1v1z" />
    <glyph glyph-name="idieresis" unicode="&#xef;" 
d="M0 1v-1v1z" />
    <glyph glyph-name="eth" unicode="&#xf0;" horiz-adv-x="655" 
d="M0 1v-1v1z" />
    <glyph glyph-name="ntilde" unicode="&#xf1;" 
d="M0 1v-1v1z" />
    <glyph glyph-name="ograve" unicode="&#xf2;" 
d="M0 1v-1v1z" />
    <glyph glyph-name="oacute" unicode="&#xf3;" 
d="M0 1v-1v1z" />
    <glyph glyph-name="ocircumflex" unicode="&#xf4;" 
d="M0 1v-1v1z" />
    <glyph glyph-name="otilde" unicode="&#xf5;" 
d="M0 1v-1v1z" />
    <glyph glyph-name="odieresis" unicode="&#xf6;" 
d="M0 1v-1v1z" />
    <glyph glyph-name="divide" unicode="&#xf7;" horiz-adv-x="655" 
d="M212 456c-12.667 16.667 -19.334 36.335 -20.001 59.002c0.666992 43.333 19.667 83.333 57 120c31.333 32.667 65 49 101 49c32.667 -0.666992 60.334 -11.334 83.001 -32.001s34.334 -47.334 35.001 -80.001c4 -30 -11 -62.333 -45 -97l-21 -19h230v-151l-53 -47h-137
c17.333 -18.667 26 -41.667 26 -69c4 -30 -11 -62 -45 -96c-37.333 -42.667 -78 -64.334 -122 -65.001c-30.667 0.666992 -56.334 10.667 -77.001 30c-20 19.333 -30.667 44.333 -32 75c0.666992 42.667 19.667 82.334 57 119.001l6 6h-231v150l53 48h135v0zM436 572.001
c-4 54 -32.667 83.333 -86 88c-54 -4.66699 -83 -34 -87 -88c4 -54 33 -83.333 87 -88c53.333 4.66699 82 34 86 88v0zM600 328.001v104h-501v-104h501v0zM436 189.001c-4 53.333 -32.667 82.333 -86 87c-54 -4.66699 -83 -33.667 -87 -87c4 -53.333 33 -82.333 87 -87
c53.333 4.66699 82 33.667 86 87v0v0v1v-1z" />
    <glyph glyph-name="oslash" unicode="&#xf8;" 
d="M0 1v-1v1z" />
    <glyph glyph-name="ugrave" unicode="&#xf9;" 
d="M0 1v-1v1z" />
    <glyph glyph-name="uacute" unicode="&#xfa;" 
d="M0 1v-1v1z" />
    <glyph glyph-name="ucircumflex" unicode="&#xfb;" 
d="M0 1v-1v1z" />
    <glyph glyph-name="udieresis" unicode="&#xfc;" 
d="M0 1v-1v1z" />
    <glyph glyph-name="yacute" unicode="&#xfd;" 
d="M0 1v-1v1z" />
    <glyph glyph-name="thorn" unicode="&#xfe;" horiz-adv-x="655" 
d="M0 1v-1v1z" />
    <glyph glyph-name="ydieresis" unicode="&#xff;" 
d="M0 1v-1v1z" />
    <glyph glyph-name=".null" horiz-adv-x="0" 
 />
    <glyph glyph-name="nonmarkingreturn" horiz-adv-x="338" 
 />
  </font>
</defs>
</svg>
